ffmpeg started on 2016-12-02 at 18:20:15
Report written to "Output/x264/results/ffmpeg/old_town_cross_2160p50veryslow7000k.log"
Command line:
Tools/ffmpeg/ffmpeg -benchmark -y -i Input/y4m/old_town_cross_2160p50.y4m -c:v libx264 -preset veryslow -b:v 7000k -an Output/x264/encoded/old_town_cross_2160p50veryslow7000k.mkv
ffmpeg version N-82227-gdb23fde Copyright (c) 2000-2016 the FFmpeg developers
  built with gcc 5.4.0 (Ubuntu 5.4.0-6ubuntu1~16.04.2) 20160609
  configuration: --prefix=/home/jaroslav/ffmpeg_build --pkg-config-flags=--static --extra-cflags=-I/home/jaroslav/ffmpeg_build/include --extra-ldflags=-L/home/jaroslav/ffmpeg_build/lib --bindir=/home/jaroslav/bin --enable-gpl --enable-libass --enable-libfdk-aac --enable-libfreetype --enable-libmp3lame --enable-libopus --enable-libtheora --enable-libvorbis --enable-libvpx --enable-libx264 --enable-libx265 --enable-nvenc --enable-libmfx --enable-libxvid --enable-libgsm --enable-libopencore-amrnb --enable-version3 --enable-nonfree
  libavutil      55. 35.100 / 55. 35.100
  libavcodec     57. 66.101 / 57. 66.101
  libavformat    57. 57.100 / 57. 57.100
  libavdevice    57.  2.100 / 57.  2.100
  libavfilter     6. 66.100 /  6. 66.100
  libswscale      4.  3.100 /  4.  3.100
  libswresample   2.  4.100 /  2.  4.100
  libpostproc    54.  2.100 / 54.  2.100
Input #0, yuv4mpegpipe, from 'Input/y4m/old_town_cross_2160p50.y4m':
  Duration: 00:00:10.00, start: 0.000000, bitrate: 4976642 kb/s
    Stream #0:0: Video: rawvideo (I420 / 0x30323449), yuv420p(progressive), 3840x2160, SAR 1:1 DAR 16:9, 50 fps, 50 tbr, 50 tbn, 50 tbc
[libx264 @ 0x437b120] using SAR=1/1
[libx264 @ 0x437b120] DPB size (16 frames, 518400 mbs) > level limit (5 frames, 184320 mbs)
[libx264 @ 0x437b120] using cpu capabilities: MMX2 SSE2Fast SSSE3 SSE4.2 AVX FMA3 AVX2 LZCNT BMI2
[libx264 @ 0x437b120] profile High, level 5.2
[libx264 @ 0x437b120] 264 - core 148 - H.264/MPEG-4 AVC codec - Copyleft 2003-2016 - http://www.videolan.org/x264.html - options: cabac=1 ref=16 deblock=1:0:0 analyse=0x3:0x133 me=umh subme=10 psy=1 psy_rd=1.00:0.00 mixed_ref=1 me_range=24 chroma_me=1 trellis=2 8x8dct=1 cqm=0 deadzone=21,11 fast_pskip=1 chroma_qp_offset=-2 threads=6 lookahead_threads=1 sliced_threads=0 nr=0 decimate=1 interlaced=0 bluray_compat=0 constrained_intra=0 bframes=8 b_pyramid=2 b_adapt=2 b_bias=0 direct=3 weightb=1 open_gop=0 weightp=2 keyint=250 keyint_min=25 scenecut=40 intra_refresh=0 rc_lookahead=60 rc=abr mbtree=1 bitrate=7000 ratetol=1.0 qcomp=0.60 qpmin=0 qpmax=69 qpstep=4 ip_ratio=1.40 aq=1:1.00
Output #0, matroska, to 'Output/x264/encoded/old_town_cross_2160p50veryslow7000k.mkv':
  Metadata:
    encoder         : Lavf57.57.100
    Stream #0:0: Video: h264 (libx264) (H264 / 0x34363248), yuv420p, 3840x2160 [SAR 1:1 DAR 16:9], q=-1--1, 7000 kb/s, 50 fps, 1k tbn, 50 tbc
    Metadata:
      encoder         : Lavc57.66.101 libx264
    Side data:
      cpb: bitrate max/min/avg: 0/0/7000000 buffer size: 0 vbv_delay: -1
Stream mapping:
  Stream #0:0 -> #0:0 (rawvideo (native) -> h264 (libx264))
Press [q] to stop, [?] for help
frame=   60 fps=0.0 q=0.0 size=       0kB time=00:00:00.00 bitrate=N/A speed=   0x    frame=   72 fps=8.0 q=0.0 size=       0kB time=00:00:00.00 bitrate=N/A speed=   0x    frame=   77 fps=7.4 q=37.0 size=       1kB time=-00:00:00.01 bitrate=N/A speed=N/A    frame=   80 fps=7.3 q=37.0 size=       1kB time=00:00:00.04 bitrate= 143.6kbits/s speed=0.00375x    frame=   82 fps=6.9 q=40.0 size=       1kB time=00:00:00.08 bitrate=  72.7kbits/s speed=0.00678x    frame=   88 fps=6.8 q=43.0 size=       1kB time=00:00:00.20 bitrate=  29.3kbits/s speed=0.0155x    frame=   91 fps=6.1 q=43.0 size=       1kB time=00:00:00.26 bitrate=  22.6kbits/s speed=0.0176x    frame=   96 fps=6.2 q=42.0 size=       1kB time=00:00:00.36 bitrate=  16.3kbits/s speed=0.0232x    frame=   98 fps=6.0 q=41.0 size=       1kB time=00:00:00.40 bitrate=  14.7kbits/s speed=0.0247x    frame=  100 fps=5.6 q=39.0 size=       1kB time=00:00:00.44 bitrate=  13.4kbits/s speed=0.0249x    frame=  105 fps=5.5 q=38.0 size=       1kB time=00:00:00.54 bitrate=  10.9kbits/s speed=0.0281x    frame=  107 fps=5.4 q=37.0 size=       1kB time=00:00:00.58 bitrate=  10.1kbits/s speed=0.0294x    frame=  108 fps=5.3 q=37.0 size=       1kB time=00:00:00.60 bitrate=   9.8kbits/s speed=0.0295x    frame=  113 fps=5.1 q=37.0 size=       1kB time=00:00:00.70 bitrate=   8.4kbits/s speed=0.0313x    frame=  115 fps=5.0 q=37.0 size=       1kB time=00:00:00.74 bitrate=   7.9kbits/s speed=0.0322x    frame=  119 fps=4.9 q=37.0 size=       1kB time=00:00:00.82 bitrate=   7.2kbits/s speed=0.0339x    frame=  121 fps=4.9 q=36.0 size=       1kB time=00:00:00.86 bitrate=   6.8kbits/s speed=0.0346x    frame=  122 fps=4.6 q=36.0 size=       1kB time=00:00:00.88 bitrate=   6.7kbits/s speed=0.0334x    frame=  124 fps=4.6 q=36.0 size=       1kB time=00:00:00.92 bitrate=   6.4kbits/s speed=0.0341x    frame=  128 fps=4.5 q=36.0 size=       1kB time=00:00:01.00 bitrate=   5.9kbits/s speed=0.0353x    frame=  129 fps=4.4 q=36.0 size=       1kB time=00:00:01.02 bitrate=   5.8kbits/s speed=0.035x    frame=  131 fps=4.3 q=36.0 size=       1kB time=00:00:01.06 bitrate=   5.5kbits/s speed=0.0348x    frame=  133 fps=4.3 q=35.0 size=       1kB time=00:00:01.10 bitrate=   5.3kbits/s speed=0.0353x    frame=  135 fps=4.3 q=36.0 size=       1kB time=00:00:01.14 bitrate=   5.2kbits/s speed=0.036x    frame=  137 fps=4.2 q=36.0 size=       1kB time=00:00:01.18 bitrate=   5.0kbits/s speed=0.0359x    frame=  138 fps=4.1 q=36.0 size=       1kB time=00:00:01.20 bitrate=   4.9kbits/s speed=0.0357x    frame=  139 fps=4.0 q=35.0 size=       1kB time=00:00:01.22 bitrate=   4.8kbits/s speed=0.0354x    frame=  140 fps=4.0 q=35.0 size=       1kB time=00:00:01.24 bitrate=   4.7kbits/s speed=0.0355x    frame=  144 fps=4.0 q=35.0 size=       1kB time=00:00:01.32 bitrate=   4.5kbits/s speed=0.0367x    frame=  145 fps=3.9 q=35.0 size=       1kB time=00:00:01.34 bitrate=   4.4kbits/s speed=0.0358x    frame=  147 fps=3.9 q=35.0 size=       1kB time=00:00:01.38 bitrate=   4.3kbits/s speed=0.0364x    frame=  148 fps=3.8 q=35.0 size=       1kB time=00:00:01.40 bitrate=   4.2kbits/s speed=0.0359x    frame=  150 fps=3.8 q=35.0 size=       1kB time=00:00:01.44 bitrate=   4.1kbits/s speed=0.0361x    frame=  154 fps=3.7 q=35.0 size=       1kB time=00:00:01.52 bitrate=   3.9kbits/s speed=0.0369x    frame=  155 fps=3.6 q=35.0 size=       1kB time=00:00:01.54 bitrate=   3.8kbits/s speed=0.0363x    frame=  157 fps=3.6 q=35.0 size=       1kB time=00:00:01.58 bitrate=   3.7kbits/s speed=0.0364x    frame=  158 fps=3.6 q=35.0 size=       1kB time=00:00:01.60 bitrate=   3.7kbits/s speed=0.0363x    frame=  163 fps=3.5 q=35.0 size=       1kB time=00:00:01.70 bitrate=   3.5kbits/s speed=0.0369x    frame=  164 fps=3.5 q=35.0 size=       1kB time=00:00:01.72 bitrate=   3.4kbits/s speed=0.0365x    frame=  166 fps=3.5 q=35.0 size=       1kB time=00:00:01.76 bitrate=   3.3kbits/s speed=0.0368x    frame=  168 fps=3.5 q=35.0 size=       1kB time=00:00:01.80 bitrate=   3.3kbits/s speed=0.0372x    frame=  170 fps=3.4 q=35.0 size=       1kB time=00:00:01.84 bitrate=   3.2kbits/s speed=0.037x    frame=  171 fps=3.4 q=35.0 size=       1kB time=00:00:01.86 bitrate=   3.2kbits/s speed=0.037x    frame=  172 fps=3.4 q=35.0 size=       1kB time=00:00:01.88 bitrate=   3.1kbits/s speed=0.0368x    frame=  174 fps=3.4 q=35.0 size=       1kB time=00:00:01.92 bitrate=   3.1kbits/s speed=0.0372x    frame=  175 fps=3.3 q=35.0 size=       1kB time=00:00:01.94 bitrate=   3.0kbits/s speed=0.0371x    frame=  176 fps=3.3 q=35.0 size=       1kB time=00:00:01.96 bitrate=   3.0kbits/s speed=0.0368x    frame=  178 fps=3.3 q=35.0 size=       1kB time=00:00:02.00 bitrate=   2.9kbits/s speed=0.0371x    frame=  181 fps=3.3 q=35.0 size=       1kB time=00:00:02.06 bitrate=   2.9kbits/s speed=0.0379x    frame=  182 fps=3.2 q=35.0 size=       1kB time=00:00:02.08 bitrate=   2.8kbits/s speed=0.0371x    frame=  184 fps=3.2 q=35.0 size=       1kB time=00:00:02.12 bitrate=   2.8kbits/s speed=0.037x    frame=  185 fps=3.2 q=35.0 size=       1kB time=00:00:02.14 bitrate=   2.8kbits/s speed=0.0368x    frame=  190 fps=3.2 q=35.0 size=       1kB time=00:00:02.24 bitrate=   2.6kbits/s speed=0.0373x    frame=  191 fps=3.1 q=35.0 size=       1kB time=00:00:02.26 bitrate=   2.6kbits/s speed=0.0369x    frame=  193 fps=3.1 q=35.0 size=       1kB time=00:00:02.30 bitrate=   2.6kbits/s speed=0.0371x    frame=  195 fps=3.1 q=35.0 size=       1kB time=00:00:02.34 bitrate=   2.5kbits/s speed=0.0371x    frame=  197 fps=3.1 q=35.0 size=       1kB time=00:00:02.38 bitrate=   2.5kbits/s speed=0.0371x    frame=  199 fps=3.1 q=35.0 size=       1kB time=00:00:02.42 bitrate=   2.4kbits/s speed=0.0372x    frame=  200 fps=3.0 q=35.0 size=       1kB time=00:00:02.44 bitrate=   2.4kbits/s speed=0.0371x    frame=  202 fps=3.0 q=35.0 size=       1kB time=00:00:02.48 bitrate=   2.4kbits/s speed=0.0372x    frame=  204 fps=3.0 q=35.0 size=       1kB time=00:00:02.52 bitrate=   2.3kbits/s speed=0.0374x    frame=  206 fps=3.0 q=35.0 size=       1kB time=00:00:02.56 bitrate=   2.3kbits/s speed=0.0375x    frame=  208 fps=3.0 q=35.0 size=       1kB time=00:00:02.60 bitrate=   2.3kbits/s speed=0.0373x    frame=  209 fps=3.0 q=35.0 size=       1kB time=00:00:02.62 bitrate=   2.2kbits/s speed=0.037x    frame=  210 fps=2.9 q=35.0 size=       1kB time=00:00:02.64 bitrate=   2.2kbits/s speed=0.037x    frame=  213 fps=3.0 q=35.0 size=       1kB time=00:00:02.70 bitrate=   2.2kbits/s speed=0.0376x    frame=  215 fps=2.9 q=35.0 size=       1kB time=00:00:02.74 bitrate=   2.1kbits/s speed=0.0375x    frame=  216 fps=2.9 q=35.0 size=       1kB time=00:00:02.76 bitrate=   2.1kbits/s speed=0.0371x    frame=  218 fps=2.9 q=35.0 size=       1kB time=00:00:02.80 bitrate=   2.1kbits/s speed=0.0371x    frame=  220 fps=2.9 q=35.0 size=       1kB time=00:00:02.84 bitrate=   2.1kbits/s speed=0.0373x    frame=  223 fps=2.9 q=34.0 size=       1kB time=00:00:02.90 bitrate=   2.0kbits/s speed=0.0376x    frame=  224 fps=2.8 q=34.0 size=       1kB time=00:00:02.92 bitrate=   2.0kbits/s speed=0.0371x    frame=  226 fps=2.8 q=34.0 size=       1kB time=00:00:02.96 bitrate=   2.0kbits/s speed=0.0372x    frame=  228 fps=2.8 q=34.0 size=       1kB time=00:00:03.00 bitrate=   2.0kbits/s speed=0.0375x    frame=  230 fps=2.8 q=34.0 size=       1kB time=00:00:03.04 bitrate=   1.9kbits/s speed=0.0374x    frame=  231 fps=2.8 q=34.0 size=       1kB time=00:00:03.06 bitrate=   1.9kbits/s speed=0.0374x    frame=  233 fps=2.8 q=35.0 size=       1kB time=00:00:03.10 bitrate=   1.9kbits/s speed=0.0373x    frame=  234 fps=2.8 q=35.0 size=       1kB time=00:00:03.12 bitrate=   1.9kbits/s speed=0.0373x    frame=  236 fps=2.8 q=35.0 size=       1kB time=00:00:03.16 bitrate=   1.9kbits/s speed=0.0374x    frame=  239 fps=2.8 q=35.0 size=       1kB time=00:00:03.22 bitrate=   1.8kbits/s speed=0.0373x    frame=  240 fps=2.8 q=35.0 size=       1kB time=00:00:03.24 bitrate=   1.8kbits/s speed=0.0373x    frame=  245 fps=2.8 q=34.0 size=       1kB time=00:00:03.34 bitrate=   1.8kbits/s speed=0.0378x    frame=  247 fps=2.7 q=35.0 size=       1kB time=00:00:03.38 bitrate=   1.7kbits/s speed=0.0375x    frame=  249 fps=2.7 q=34.0 size=       1kB time=00:00:03.42 bitrate=   1.7kbits/s speed=0.0375x    frame=  251 fps=2.7 q=34.0 size=       1kB time=00:00:03.46 bitrate=   1.7kbits/s speed=0.0376x    frame=  253 fps=2.7 q=34.0 size=       1kB time=00:00:03.50 bitrate=   1.7kbits/s speed=0.0377x    frame=  256 fps=2.7 q=34.0 size=       1kB time=00:00:03.56 bitrate=   1.7kbits/s speed=0.0381x    frame=  257 fps=2.7 q=34.0 size=       1kB time=00:00:03.58 bitrate=   1.6kbits/s speed=0.0377x    frame=  260 fps=2.7 q=35.0 size=       1kB time=00:00:03.64 bitrate=   1.6kbits/s speed=0.0376x    frame=  262 fps=2.7 q=35.0 size=       1kB time=00:00:03.68 bitrate=   1.6kbits/s speed=0.0377x    frame=  266 fps=2.7 q=35.0 size=       1kB time=00:00:03.76 bitrate=   1.6kbits/s speed=0.038x    frame=  267 fps=2.7 q=35.0 size=       1kB time=00:00:03.78 bitrate=   1.6kbits/s speed=0.0378x    frame=  268 fps=2.7 q=35.0 size=       1kB time=00:00:03.80 bitrate=   1.5kbits/s speed=0.0378x    frame=  269 fps=2.7 q=35.0 size=       1kB time=00:00:03.82 bitrate=   1.5kbits/s speed=0.0377x    frame=  271 fps=2.7 q=35.0 size=       1kB time=00:00:03.86 bitrate=   1.5kbits/s speed=0.0379x    frame=  274 fps=2.7 q=35.0 size=       1kB time=00:00:03.92 bitrate=   1.5kbits/s speed=0.038x    frame=  275 fps=2.6 q=35.0 size=       1kB time=00:00:03.94 bitrate=   1.5kbits/s speed=0.038x    frame=  276 fps=2.6 q=35.0 size=       1kB time=00:00:03.96 bitrate=   1.5kbits/s speed=0.0378x    frame=  278 fps=2.6 q=34.0 size=       1kB time=00:00:04.00 bitrate=   1.5kbits/s speed=0.038x    frame=  280 fps=2.6 q=34.0 size=       1kB time=00:00:04.04 bitrate=   1.5kbits/s speed=0.0381x    frame=  281 fps=2.6 q=34.0 size=       1kB time=00:00:04.06 bitrate=   1.4kbits/s speed=0.038x    frame=  282 fps=2.6 q=34.0 size=       1kB time=00:00:04.08 bitrate=   1.4kbits/s speed=0.0377x    frame=  285 fps=2.6 q=34.0 size=       1kB time=00:00:04.14 bitrate=   1.4kbits/s speed=0.0381x    frame=  287 fps=2.6 q=34.0 size=       1kB time=00:00:04.18 bitrate=   1.4kbits/s speed=0.0381x    frame=  288 fps=2.6 q=34.0 size=       1kB time=00:00:04.20 bitrate=   1.4kbits/s speed=0.0378x    frame=  291 fps=2.6 q=34.0 size=       1kB time=00:00:04.26 bitrate=   1.4kbits/s speed=0.0382x    frame=  293 fps=2.6 q=34.0 size=       1kB time=00:00:04.30 bitrate=   1.4kbits/s speed=0.0384x    frame=  294 fps=2.6 q=34.0 size=       1kB time=00:00:04.32 bitrate=   1.4kbits/s speed=0.0379x    frame=  296 fps=2.6 q=34.0 size=       1kB time=00:00:04.36 bitrate=   1.4kbits/s speed=0.0379x    frame=  298 fps=2.6 q=34.0 size=       1kB time=00:00:04.40 bitrate=   1.3kbits/s speed=0.0381x    frame=  300 fps=2.6 q=34.0 size=       1kB time=00:00:04.44 bitrate=   1.3kbits/s speed=0.0381x    frame=  301 fps=2.6 q=34.0 size=       1kB time=00:00:04.46 bitrate=   1.3kbits/s speed=0.0379x    frame=  303 fps=2.6 q=34.0 size=       1kB time=00:00:04.50 bitrate=   1.3kbits/s speed=0.0379x    frame=  304 fps=2.5 q=34.0 size=       1kB time=00:00:04.52 bitrate=   1.3kbits/s speed=0.0379x    frame=  307 fps=2.6 q=34.0 size=       1kB time=00:00:04.58 bitrate=   1.3kbits/s speed=0.0381x    frame=  309 fps=2.5 q=34.0 size=       1kB time=00:00:04.62 bitrate=   1.3kbits/s speed=0.0381x    frame=  310 fps=2.5 q=34.0 size=       1kB time=00:00:04.64 bitrate=   1.3kbits/s speed=0.0381x    frame=  311 fps=2.5 q=34.0 size=       1kB time=00:00:04.66 bitrate=   1.3kbits/s speed=0.0378x    frame=  312 fps=2.5 q=34.0 size=       1kB time=00:00:04.68 bitrate=   1.3kbits/s speed=0.0378x    frame=  313 fps=2.5 q=34.0 size=       1kB time=00:00:04.70 bitrate=   1.3kbits/s speed=0.0373x    frame=  318 fps=2.5 q=34.0 size=       1kB time=00:00:04.80 bitrate=   1.2kbits/s speed=0.0374x    frame=  320 fps=2.5 q=31.0 size=       1kB time=00:00:04.84 bitrate=   1.2kbits/s speed=0.0375x    frame=  324 fps=2.5 q=35.0 size=       1kB time=00:00:04.92 bitrate=   1.2kbits/s speed=0.0377x    frame=  326 fps=2.5 q=35.0 size=    3918kB time=00:00:04.96 bitrate=6470.1kbits/s speed=0.0376x    frame=  329 fps=2.5 q=35.0 size=    3918kB time=00:00:05.02 bitrate=6392.7kbits/s speed=0.0379x    frame=  332 fps=2.5 q=35.0 size=    3918kB time=00:00:05.08 bitrate=6317.3kbits/s speed=0.0382x    frame=  333 fps=2.5 q=35.0 size=    3918kB time=00:00:05.10 bitrate=6292.5kbits/s speed=0.0382x    frame=  336 fps=2.5 q=36.0 size=    3918kB time=00:00:05.16 bitrate=6219.3kbits/s speed=0.0384x    frame=  339 fps=2.5 q=36.0 size=    3918kB time=00:00:05.22 bitrate=6147.9kbits/s speed=0.0386x    frame=  342 fps=2.5 q=36.0 size=    3918kB time=00:00:05.28 bitrate=6078.0kbits/s speed=0.0387x    frame=  345 fps=2.5 q=36.0 size=    3918kB time=00:00:05.34 bitrate=6009.7kbits/s speed=0.0389x    frame=  346 fps=2.5 q=36.0 size=    3918kB time=00:00:05.36 bitrate=5987.3kbits/s speed=0.0388x    frame=  351 fps=2.5 q=36.0 size=    3918kB time=00:00:05.46 bitrate=5877.7kbits/s speed=0.0391x    frame=  352 fps=2.5 q=36.0 size=    3918kB time=00:00:05.48 bitrate=5856.2kbits/s speed=0.0391x    frame=  354 fps=2.5 q=36.0 size=    3918kB time=00:00:05.52 bitrate=5813.8kbits/s speed=0.0392x    frame=  356 fps=2.5 q=36.0 size=    3918kB time=00:00:05.56 bitrate=5772.0kbits/s speed=0.0393x    frame=  358 fps=2.5 q=36.0 size=    3918kB time=00:00:05.60 bitrate=5730.8kbits/s speed=0.0394x    frame=  360 fps=2.5 q=36.0 size=    3918kB time=00:00:05.64 bitrate=5690.1kbits/s speed=0.0393x    frame=  363 fps=2.5 q=36.0 size=    3918kB time=00:00:05.70 bitrate=5630.2kbits/s speed=0.0393x    frame=  365 fps=2.5 q=36.0 size=    3918kB time=00:00:05.74 bitrate=5591.0kbits/s speed=0.0394x    frame=  366 fps=2.5 q=36.0 size=    3918kB time=00:00:05.76 bitrate=5571.6kbits/s speed=0.0393x    frame=  369 fps=2.5 q=36.0 size=    3918kB time=00:00:05.82 bitrate=5514.2kbits/s speed=0.0394x    frame=  372 fps=2.5 q=36.0 size=    3918kB time=00:00:05.88 bitrate=5457.9kbits/s speed=0.0396x    frame=  373 fps=2.5 q=36.0 size=    3918kB time=00:00:05.90 bitrate=5439.4kbits/s speed=0.0394x    frame=  374 fps=2.5 q=36.0 size=    3918kB time=00:00:05.92 bitrate=5421.0kbits/s speed=0.0393x    frame=  377 fps=2.5 q=36.0 size=    3918kB time=00:00:05.98 bitrate=5366.7kbits/s speed=0.0395x    frame=  378 fps=2.5 q=36.0 size=    3918kB time=00:00:06.00 bitrate=5348.8kbits/s speed=0.0394x    frame=  379 fps=2.5 q=36.0 size=    3918kB time=00:00:06.02 bitrate=5331.0kbits/s speed=0.0392x    frame=  380 fps=2.5 q=36.0 size=    3918kB time=00:00:06.04 bitrate=5313.4kbits/s speed=0.0392x    frame=  384 fps=2.5 q=36.0 size=    3918kB time=00:00:06.12 bitrate=5243.9kbits/s speed=0.0395x    frame=  385 fps=2.5 q=36.0 size=    3918kB time=00:00:06.14 bitrate=5226.8kbits/s speed=0.0394x    frame=  386 fps=2.5 q=36.0 size=    3918kB time=00:00:06.16 bitrate=5209.9kbits/s speed=0.0394x    frame=  387 fps=2.5 q=36.0 size=    3918kB time=00:00:06.18 bitrate=5193.0kbits/s speed=0.0393x    frame=  389 fps=2.5 q=36.0 size=    3918kB time=00:00:06.22 bitrate=5159.6kbits/s speed=0.0394x    frame=  391 fps=2.5 q=36.0 size=    3918kB time=00:00:06.26 bitrate=5126.7kbits/s speed=0.0392x    frame=  392 fps=2.4 q=36.0 size=    3918kB time=00:00:06.28 bitrate=5110.3kbits/s speed=0.0392x    frame=  395 fps=2.5 q=36.0 size=    3918kB time=00:00:06.34 bitrate=5062.0kbits/s speed=0.0394x    frame=  397 fps=2.4 q=36.0 size=    3918kB time=00:00:06.38 bitrate=5030.2kbits/s speed=0.0393x    frame=  398 fps=2.4 q=36.0 size=    3918kB time=00:00:06.40 bitrate=5014.5kbits/s speed=0.0392x    frame=  399 fps=2.4 q=36.0 size=    3918kB time=00:00:06.42 bitrate=4998.9kbits/s speed=0.0392x    frame=  400 fps=2.4 q=36.0 size=    3918kB time=00:00:06.44 bitrate=4983.4kbits/s speed=0.0391x    frame=  401 fps=2.4 q=36.0 size=    3918kB time=00:00:06.46 bitrate=4968.0kbits/s speed=0.0391x    frame=  404 fps=2.4 q=36.0 size=    3918kB time=00:00:06.52 bitrate=4922.2kbits/s speed=0.0393x    frame=  406 fps=2.4 q=36.0 size=    3918kB time=00:00:06.56 bitrate=4892.2kbits/s speed=0.0392x    frame=  407 fps=2.4 q=36.0 size=    3918kB time=00:00:06.58 bitrate=4877.4kbits/s speed=0.039x    frame=  410 fps=2.4 q=36.0 size=    3918kB time=00:00:06.64 bitrate=4833.3kbits/s speed=0.039x    frame=  413 fps=2.4 q=36.0 size=    3918kB time=00:00:06.70 bitrate=4790.0kbits/s speed=0.039x    frame=  416 fps=2.4 q=36.0 size=    3918kB time=00:00:06.76 bitrate=4747.5kbits/s speed=0.0391x    frame=  418 fps=2.4 q=36.0 size=    3918kB time=00:00:06.80 bitrate=4719.6kbits/s speed=0.0391x    frame=  419 fps=2.4 q=36.0 size=    3918kB time=00:00:06.82 bitrate=4705.8kbits/s speed=0.0389x    frame=  423 fps=2.4 q=36.0 size=    3918kB time=00:00:06.90 bitrate=4651.2kbits/s speed=0.0392x    frame=  425 fps=2.4 q=36.0 size=    3918kB time=00:00:06.94 bitrate=4624.4kbits/s speed=0.0389x    frame=  427 fps=2.4 q=36.0 size=    3918kB time=00:00:06.98 bitrate=4597.9kbits/s speed=0.0389x    frame=  428 fps=2.4 q=36.0 size=    3918kB time=00:00:07.00 bitrate=4584.8kbits/s speed=0.0389x    frame=  431 fps=2.4 q=36.0 size=    3918kB time=00:00:07.06 bitrate=4545.8kbits/s speed=0.0389x    frame=  433 fps=2.4 q=36.0 size=    3918kB time=00:00:07.10 bitrate=4520.2kbits/s speed=0.039x    frame=  434 fps=2.4 q=36.0 size=    3918kB time=00:00:07.12 bitrate=4507.5kbits/s speed=0.0389x    frame=  435 fps=2.4 q=36.0 size=    3918kB time=00:00:07.14 bitrate=4494.9kbits/s speed=0.0389x    frame=  437 fps=2.4 q=36.0 size=    3918kB time=00:00:07.18 bitrate=4469.8kbits/s speed=0.0388x    frame=  438 fps=2.4 q=36.0 size=    3918kB time=00:00:07.20 bitrate=4457.4kbits/s speed=0.0387x    frame=  443 fps=2.4 q=36.0 size=    3918kB time=00:00:07.30 bitrate=4396.4kbits/s speed=0.0388x    frame=  444 fps=2.3 q=36.0 size=    3918kB time=00:00:07.32 bitrate=4384.4kbits/s speed=0.0387x    frame=  446 fps=2.3 q=36.0 size=    3918kB time=00:00:07.36 bitrate=4360.5kbits/s speed=0.0387x    frame=  449 fps=2.3 q=36.0 size=    3918kB time=00:00:07.42 bitrate=4325.3kbits/s speed=0.0388x    frame=  451 fps=2.3 q=36.0 size=    3918kB time=00:00:07.46 bitrate=4302.1kbits/s speed=0.0388x    frame=  452 fps=2.3 q=36.0 size=    3918kB time=00:00:07.48 bitrate=4290.6kbits/s speed=0.0388x    frame=  453 fps=2.3 q=36.0 size=    3918kB time=00:00:07.50 bitrate=4279.2kbits/s speed=0.0386x    frame=  454 fps=2.3 q=36.0 size=    3918kB time=00:00:07.52 bitrate=4267.8kbits/s speed=0.0386x    frame=  458 fps=2.3 q=36.0 size=    3918kB time=00:00:07.60 bitrate=4222.9kbits/s speed=0.0389x    frame=  459 fps=2.3 q=36.0 size=    3918kB time=00:00:07.62 bitrate=4211.8kbits/s speed=0.0386x    frame=  460 fps=2.3 q=36.0 size=    3918kB time=00:00:07.64 bitrate=4200.8kbits/s speed=0.0385x    frame=  463 fps=2.3 q=36.0 size=    3918kB time=00:00:07.70 bitrate=4168.0kbits/s speed=0.0387x    frame=  464 fps=2.3 q=36.0 size=    3918kB time=00:00:07.72 bitrate=4157.2kbits/s speed=0.0387x    frame=  465 fps=2.3 q=36.0 size=    3918kB time=00:00:07.74 bitrate=4146.5kbits/s speed=0.0386x    frame=  466 fps=2.3 q=36.0 size=    3918kB time=00:00:07.76 bitrate=4135.8kbits/s speed=0.0385x    frame=  469 fps=2.3 q=36.0 size=    3918kB time=00:00:07.82 bitrate=4104.1kbits/s speed=0.0386x    frame=  470 fps=2.3 q=36.0 size=    3918kB time=00:00:07.84 bitrate=4093.6kbits/s speed=0.0386x    frame=  472 fps=2.3 q=36.0 size=    3918kB time=00:00:07.88 bitrate=4072.8kbits/s speed=0.0386x    frame=  473 fps=2.3 q=36.0 size=    3918kB time=00:00:07.90 bitrate=4062.5kbits/s speed=0.0386x    frame=  474 fps=2.3 q=36.0 size=    3918kB time=00:00:07.92 bitrate=4052.3kbits/s speed=0.0386x    frame=  476 fps=2.3 q=36.0 size=    3918kB time=00:00:07.96 bitrate=4031.9kbits/s speed=0.0386x    frame=  478 fps=2.3 q=36.0 size=    3918kB time=00:00:08.00 bitrate=4011.7kbits/s speed=0.0386x    frame=  479 fps=2.3 q=36.0 size=    3918kB time=00:00:08.02 bitrate=4001.7kbits/s speed=0.0386x    frame=  480 fps=2.3 q=36.0 size=    3918kB time=00:00:08.04 bitrate=3991.8kbits/s speed=0.0385x    frame=  481 fps=2.3 q=36.0 size=    3918kB time=00:00:08.06 bitrate=3981.9kbits/s speed=0.0385x    frame=  484 fps=2.3 q=36.0 size=    3918kB time=00:00:08.12 bitrate=3952.5kbits/s speed=0.0387x    frame=  485 fps=2.3 q=36.0 size=    3918kB time=00:00:08.14 bitrate=3942.8kbits/s speed=0.0385x    frame=  487 fps=2.3 q=36.0 size=    3918kB time=00:00:08.18 bitrate=3923.5kbits/s speed=0.0386x    frame=  489 fps=2.3 q=36.0 size=    3918kB time=00:00:08.22 bitrate=3904.4kbits/s speed=0.0386x    frame=  491 fps=2.3 q=36.0 size=    3918kB time=00:00:08.26 bitrate=3885.5kbits/s speed=0.0385x    frame=  493 fps=2.3 q=36.0 size=    3918kB time=00:00:08.30 bitrate=3866.8kbits/s speed=0.0385x    frame=  496 fps=2.3 q=36.0 size=    3918kB time=00:00:08.36 bitrate=3839.0kbits/s speed=0.0386x    frame=  498 fps=2.3 q=36.0 size=    3918kB time=00:00:08.40 bitrate=3820.7kbits/s speed=0.0386x    frame=  499 fps=2.3 q=36.0 size=    3918kB time=00:00:08.42 bitrate=3811.7kbits/s speed=0.0385x    frame=  500 fps=2.0 q=-1.0 Lsize=    8659kB time=00:00:09.94 bitrate=7135.5kbits/s speed=0.039x    
video:8655kB audio:0kB subtitle:0kB other streams:0kB global headers:0kB muxing overhead: 0.050337%
bench: utime=972.016s
bench: maxrss=3681912kB
[libx264 @ 0x437b120] frame I:3     Avg QP:32.08  size:356925
[libx264 @ 0x437b120] frame P:63    Avg QP:34.58  size: 47249
[libx264 @ 0x437b120] frame B:434   Avg QP:37.15  size: 11092
[libx264 @ 0x437b120] consecutive B-frames:  0.8%  0.0%  0.0%  1.6%  4.0%  3.6% 11.2% 17.6% 61.2%
[libx264 @ 0x437b120] mb I  I16..4: 31.3% 62.6%  6.1%
[libx264 @ 0x437b120] mb P  I16..4:  0.0%  0.1%  0.0%  P16..4: 35.8%  3.2%  6.7%  0.0%  0.0%    skip:54.1%
[libx264 @ 0x437b120] mb B  I16..4:  0.0%  0.0%  0.0%  B16..8: 38.5%  0.2%  0.0%  direct: 0.0%  skip:61.2%  L0:50.0% L1:49.9% BI: 0.1%
[libx264 @ 0x437b120] final ratefactor: 27.49
[libx264 @ 0x437b120] 8x8 transform intra:63.0% inter:70.7%
[libx264 @ 0x437b120] direct mvs  spatial:99.1% temporal:0.9%
[libx264 @ 0x437b120] coded y,uvDC,uvAC intra: 76.8% 54.4% 33.2% inter: 1.2% 0.9% 0.0%
[libx264 @ 0x437b120] i16 v,h,dc,p: 10% 22% 12% 57%
[libx264 @ 0x437b120] i8 v,h,dc,ddl,ddr,vr,hd,vl,hu:  5%  7%  1% 14% 20% 14% 19%  9% 12%
[libx264 @ 0x437b120] i4 v,h,dc,ddl,ddr,vr,hd,vl,hu:  3%  4%  1% 14% 19% 14% 20% 10% 15%
[libx264 @ 0x437b120] i8c dc,h,v,p: 24% 50% 15% 10%
[libx264 @ 0x437b120] Weighted P-Frames: Y:3.2% UV:1.6%
[libx264 @ 0x437b120] ref P L0: 63.0% 21.1%  9.0%  1.6%  1.4%  0.9%  1.0%  0.3%  0.3%  0.2%  0.2%  0.2%  0.2%  0.2%  0.2%  0.1%
[libx264 @ 0x437b120] ref B L0: 83.2%  5.9%  4.8%  1.2%  1.1%  1.1%  1.0%  0.2%  0.2%  0.2%  0.2%  0.2%  0.3%  0.2%  0.1%
[libx264 @ 0x437b120] ref B L1: 95.7%  4.3%
[libx264 @ 0x437b120] kb/s:7089.24
